<?xml version="1.0" standalone="no"?>
<!DOCTYPE svg PUBLIC "-//W3C//DTD SVG 1.1//EN" "http://www.w3.org/Graphics/SVG/1.1/DTD/svg11.dtd">
<svg xmlns="http://www.w3.org/2000/svg">
<defs >
<font id="Merriweather" horiz-adv-x="604" ><font-face
    font-family="Merriweather Light"
    units-per-em="1000"
    panose-1="0 0 4 0 0 0 0 0 0 0"
    ascent="983"
    descent="-273"
    alphabetic="0" />
<glyph unicode=" " glyph-name="space" horiz-adv-x="237" />
<glyph unicode="!" glyph-name="exclam" horiz-adv-x="335" d="M206 868H296L185 238H133L206 868ZM81 62T99 82T141 103Q164 103 175 92T186 61Q186 30 167 11T122 -9Q104 -9 93 2T81 33Q81 62 99 82Z" />
<glyph unicode="&quot;" glyph-name="quotedbl" horiz-adv-x="490" d="M174 824H258L184 472H131L174 824ZM408 824H492L418 472H365L408 824Z" />
<glyph unicode="#" glyph-name="numbersign" horiz-adv-x="686" d="M159 178H54L57 229H167L202 450H93L96 500H209L235 663H297L272 500H461L489 663H551L524 500H638L635 450H517L481 229H593L590 178H473L446 0H385L411 178H221L190 0H130L159 178ZM418 229L454
450H264L229 229H418Z" />
<glyph unicode="$" glyph-name="dollar" horiz-adv-x="588" d="M211 -10Q157 -6 112 6T52 32L73 167H120L125 68Q147 50 186 40T263 30Q306 30 346 46T412 95T438 177Q438 216 419 245T373 293T299 341L280 352Q229 382 198 405T144 464T122 546Q122 605 150 650T227
721T335 752L349 840H416L402 751Q450 747 486 736T540 711L520 592H476L465 681Q447 694 414 702T343 710Q311 710 276 697T215 652T189 571Q189 532 210 503T258 456T340 407Q397 373 428 351T483 293T507 209Q507 146 477 98T395 23T278 -10L261 -112H194L211
-10Z" />
<glyph unicode="%" glyph-name="percent" horiz-adv-x="933" d="M664 747H724L261 0H202L664 747ZM169 365T134 407T99 515Q99 567 125 614T197 691T299 721Q368 721 400 683T433 579Q433 525 408 476T338 396T234 365Q169 365 134 407ZM284 403T312 430T355 497T370
576Q370 627 350 655T289 684Q249 684 220 658T175 593T160 516Q160 464 181 434T244 403Q284 403 312 430ZM506 235T532 282T605 360T708 390Q777 390 810 352T843 246Q843 192 818 142T747 62T642 31Q577 31 542 73T506 183Q506 235 532 282ZM569 133T590 103T652
72Q692 72 720 99T762 166T776 243Q776 294 757 322T697 350Q658 350 629 324T585 259T569 184Q569 133 590 103Z" />
<glyph unicode="&amp;" glyph-name="ampersand" horiz-adv-x="757" d="M210 -8T154 12T64 74T30 179Q30 245 75 290T203 378Q183 421 170 472T157 563Q157 621 185 664T262 732T372 756Q453 756 489 717T526 620Q526 569 497 530T426 462T313 396L280 378Q324
298 378 227T492 104Q542 160 542 269Q542 303 530 337Q519 338 493 338Q475 338 456 333T428 322V375Q436 383 453 389T495 396Q517 396 559 390Q597 383 627 383Q671 383 691 401T719 466H749Q747 395 723 359T643 323Q625 323 605 326Q609 304 609 286Q609 158
523 78Q555 54 588 45Q630 31 667 34L664 0Q626 -10 583 -10Q551 -10 520 1T463 35Q382 -8 275 -8Q210 -8 154 12ZM325 440T364 466T428 528T454 612Q454 655 433 685T362 716Q300 716 262 676T224 573Q224 529 236 486T264 409Q325 440 364 466ZM377 35T434 62Q362
129 318 190T220 343Q165 308 135 269T105 180Q105 110 153 73T282 35Q377 35 434 62Z" />
<glyph unicode="&apos;" glyph-name="quotesingle" horiz-adv-x="256" d="M169 824H253L179 472H126L169 824Z" />
<glyph unicode="(" glyph-name="parenleft" horiz-adv-x="417" d="M99 285T106 350Q124 478 182 585T305 760T404 847L437 823Q406 804 355 743T255 585T186 369Q176 302 176 246Q176 146 199 67T254 -63T312 -134L272 -159H265Q238 -141 200 -92T130 44T99 243Q99
285 106 350Z" />
<glyph unicode=")" glyph-name="parenright" horiz-adv-x="417" d="M328 412T321 347Q303 219 245 112T122 -63T23 -150L-10 -126Q21 -107 72 -46T172 112T241 328Q251 395 251 451Q251 551 228 630T173 760T115 831L155 856H162Q189 838 227 789T297 653T328
454Q328 412 321 347Z" />
<glyph unicode="*" glyph-name="asterisk" horiz-adv-x="667" d="M139 470L294 537L356 560L300 584L158 654L201 719L324 621L370 582L366 644L365 807H437L407 644L394 582L448 621L592 717L621 652L465 584L404 560L458 536L597 467L554 402L434 500L390 539L392
479L394 316H322L352 479L365 539L311 500L168 405L139 470Z" />
<glyph unicode="+" glyph-name="plus" horiz-adv-x="667" d="M313 349L234 346H124L131 408H241L318 404L326 491L340 603H406L394 491L379 404L444 408H569L563 346H438L374 349Q374 338 370 306L366 262L352 144H285L299 262L313 349Z" />
<glyph unicode="," glyph-name="comma" horiz-adv-x="278" d="M111 129Q151 113 171 74T192 -13Q192 -92 143 -155T21 -245L-3 -214L-1 -205Q44 -182 76 -138T109 -34Q109 2 93 29T53 64V82L111 129Z" />
<glyph unicode="-" glyph-name="hyphen" horiz-adv-x="621" d="M124 408H530L523 346H117L124 408Z" />
<glyph unicode="." glyph-name="period" horiz-adv-x="257" d="M56 63T74 83T117 103Q140 103 151 92T162 61Q162 30 143 11T98 -9Q79 -9 68 2T56 34Q56 63 74 83Z" />
<glyph unicode="/" glyph-name="slash" horiz-adv-x="417" d="M-56 -177L365 780H430L9 -177H-56Z" />
<glyph unicode="0" glyph-name="zero" horiz-adv-x="624" d="M163 -8T113 55T63 220Q63 316 103 395T213 521T363 567Q566 567 566 340Q566 249 527 169T420 41T268 -8Q163 -8 113 55ZM343 36T391 79T465 190T490 333Q490 423 456 473T350 524Q281 524 234 479T163
364T139 226Q139 143 173 90T276 36Q343 36 391 79Z" />
<glyph unicode="1" glyph-name="one" horiz-adv-x="449" d="M170 44L233 472Q141 440 90 431L84 469Q131 479 185 507T288 567L320 558L246 45L361 34L357 0H58L62 34L170 44Z" />
<glyph unicode="2" glyph-name="two" horiz-adv-x="580" d="M186 112T293 206T401 392Q401 514 277 514Q225 514 184 492T101 436L81 471Q118 509 176 538T305 567Q401 567 442 522T483 406Q483 311 378 217T120 45L431 64L476 149L514 135L476 0H31L24 33Q186
112 293 206Z" />
<glyph unicode="3" glyph-name="three" horiz-adv-x="529" d="M62 -160T15 -154L21 -109Q61 -114 91 -114Q161 -114 224 -91T325 -23T364 79Q364 138 328 171T215 205Q201 199 161 190Q128 180 129 181L134 228Q237 251 304 299T372 416Q372 465 343 489T262 513Q212
513 171 496T88 448L72 487Q103 517 163 542T294 567Q362 567 408 533T454 430Q454 368 401 315T274 235Q366 238 406 199T447 93Q447 20 397 -37T265 -127T97 -160Q62 -160 15 -154Z" />
<glyph unicode="4" glyph-name="four" horiz-adv-x="612" d="M354 0H33L19 37Q88 130 180 283T360 613H375L431 578Q372 468 183 182L142 119L120 90Q111 78 100 65T82 40L360 50L388 266L460 289L431 56L558 62L550 0H423L400 -183H330L354 0Z" />
<glyph unicode="5" glyph-name="five" horiz-adv-x="542" d="M47 -129T69 -129Q145 -129 217 -99T334 -17T379 100Q379 170 344 203T234 237Q181 237 93 204L74 219L155 560H449L458 567H510L488 494H206L144 259Q170 269 205 276T271 283Q357 283 410 239T464
107Q464 23 407 -39T262 -135T83 -169Q45 -169 20 -161L24 -125Q47 -129 69 -129Z" />
<glyph unicode="6" glyph-name="six" horiz-adv-x="611" d="M171 -10T119 57T66 229Q66 346 120 457T270 651T483 767L495 733Q382 693 293 600T166 397Q244 477 358 477Q449 477 495 424T541 289Q541 213 507 144T410 33T268 -10Q171 -10 119 57ZM342 33T382
69T442 161T462 271Q462 344 430 386T340 429Q270 429 230 403T158 339Q143 277 143 222Q143 135 179 84T285 33Q342 33 382 69Z" />
<glyph unicode="7" glyph-name="seven" horiz-adv-x="535" d="M469 500H136L96 397L48 399L79 560H514L527 542L229 -154L151 -128L469 500Z" />
<glyph unicode="8" glyph-name="eight" horiz-adv-x="587" d="M57 239T113 297T259 393Q208 434 176 477T143 573Q143 628 172 670T252 735T367 759Q446 759 497 716T548 601Q548 534 501 484T368 394Q515 290 515 190Q515 129 480 84T388 14T265 -10Q213 -10
165 9T87 67T57 163Q57 239 113 297ZM400 442T437 489T475 595Q475 655 442 687T359 720Q296 720 255 681T213 579Q213 531 245 494T336 415Q400 442 437 489ZM135 112T172 72T276 32Q320 32 357 50T417 103T439 180Q439 230 399 274T285 368Q224 342 180 291T135
176Q135 112 172 72Z" />
<glyph unicode="9" glyph-name="nine" horiz-adv-x="608" d="M402 566T447 536T516 452T539 333Q539 212 485 99T335 -96T122 -211L110 -177Q222 -138 312 -44T441 160Q408 126 360 103T247 79Q185 79 144 107T84 179T65 274Q65 345 97 412T192 523T337 566Q402
566 447 536ZM263 524T222 488T161 398T140 291Q140 216 174 172T265 127Q333 127 374 154T447 217Q462 274 462 340Q462 422 426 473T320 524Q263 524 222 488Z" />
<glyph unicode=":" glyph-name="colon" horiz-adv-x="257" d="M92 458T110 478T153 498Q176 498 187 487T198 456Q198 425 179 406T134 386Q115 386 104 397T92 429Q92 458 110 478ZM302 63T320 83T363 103Q386 103 397 92T408 61Q408 30 389 11T344 -9Q325 -9
314 2T302 34Q302 63 320 83Z" />
<glyph unicode=";" glyph-name="semicolon" horiz-adv-x="257" d="M360 129Q400 113 420 74T441 -13Q441 -92 392 -155T270 -245L246 -214L248 -205Q293 -182 325 -138T358 -34Q358 2 342 29T302 64V82L360 129ZM93 458T111 478T154 498Q177 498 188 487T199 456Q199
425 180 406T135 386Q116 386 105 397T93 429Q93 458 111 478Z" />
<glyph unicode="&lt;" glyph-name="less" horiz-adv-x="668" d="M103 392L596 646L587 570L173 367L539 163L530 86L97 341L103 392Z" />
<glyph unicode="=" glyph-name="equal" horiz-adv-x="519" d="M81 483H479L472 422H75L81 483ZM47 234H445L438 173H41L47 234Z" />
<glyph unicode="&gt;" glyph-name="greater" horiz-adv-x="668" d="M598 342L105 88L114 164L528 367L162 571L171 648L604 393L598 342Z" />
<glyph unicode="?" glyph-name="question" horiz-adv-x="498" d="M151 237T143 275T134 348Q134 390 169 421T275 489Q326 514 353 533T403 588Q417 618 417 646Q417 728 370 775T236 823Q173 823 136 805L146 859Q158 870 190 877T256 885Q378 885 429 827T480
681Q480 619 451 572Q429 533 396 508T304 450Q250 418 226 395T201 335Q201 311 205 283T216 238L169 218L163 219Q151 237 143 275ZM166 63T184 83T227 103Q271 103 271 60Q271 29 252 10T208 -9Q189 -9 178 2T166 34Q166 63 184 83Z" />
<glyph unicode="@" glyph-name="at" horiz-adv-x="961" d="M59 336T129 470T320 679T585 754Q684 754 757 717T871 610T912 444Q912 315 868 216T756 64T621 10Q590 10 582 33T573 102Q573 121 579 160T596 243Q556 147 505 75T402 3Q367 3 336 25T286 94T266
209Q266 285 295 360T384 484T530 533Q556 533 588 527T641 507L704 519Q689 463 673 376T648 214Q638 112 640 94Q642 67 660 67Q704 67 750 117T825 248T855 417Q855 564 771 633T554 703Q423 703 323 632T169 444T115 191Q115 12 200 -71T440 -155Q491 -155
544 -144T622 -118L634 -152Q600 -179 547 -194T431 -209Q257 -209 158 -115T59 163Q59 336 129 470ZM333 147T355 107T415 67Q447 67 487 125T565 271T622 445Q608 463 579 473T524 484Q456 484 413 444T352 344T333 217Q333 147 355 107Z" />
<glyph unicode="A" glyph-name="A" horiz-adv-x="655" d="M359 743H434L562 47L644 34L642 0H396L398 34L488 45L458 225H169L84 46L174 34L171 0H-59L-55 34L13 45L359 743ZM385 679L192 272H450L392 622L385 679Z" />
<glyph unicode="B" glyph-name="B" horiz-adv-x="624" d="M245 743T260 744T285 746Q335 750 363 750Q472 750 525 705T579 590Q579 514 539 465T425 394Q489 385 532 342T575 234Q575 112 483 53T249 -7Q229 -7 181 -3Q168 -2 152 -1T119 0H13L17 34L90 46L171
694L105 704L109 743H226Q245 743 260 744ZM246 410H324Q405 410 455 454T506 581Q506 644 469 674T346 705Q325 705 297 704T244 699L208 410H246ZM177 46T211 44T266 41Q371 41 434 85T497 226Q497 292 457 326T338 360Q254 360 202 358L164 50Q177 46 211 44Z"
/>
<glyph unicode="C" glyph-name="C" horiz-adv-x="602" d="M499 690T471 697T395 704Q307 704 246 647T153 503T122 325Q122 252 141 187T202 81T312 39Q354 39 398 52T460 87L491 196H537L517 34Q511 32 475 21T391 1T298 -8Q210 -8 153 39T70 161T44 318Q44 445
93 543T224 696T403 751Q460 751 498 745T575 728L596 721L566 544H522L519 678Q499 690 471 697Z" />
<glyph unicode="D" glyph-name="D" horiz-adv-x="694" d="M259 743T301 747Q351 751 379 751Q525 751 592 669T660 440Q660 314 612 211T477 48T280 -8Q273 -8 259 -7T225 -4Q181 0 122 0H13L16 34L89 46L171 694L105 704L109 743H238Q259 743 301 747ZM192 46T232
43T300 39Q393 44 457 101T553 247T585 438Q585 580 533 642T358 705Q315 705 245 696L164 52Q192 46 232 43Z" />
<glyph unicode="E" glyph-name="E" horiz-adv-x="597" d="M109 743H557L554 592H513L497 695L247 701L209 410L444 413L440 352L205 358L163 46L466 55L521 167L560 154L517 0H13L16 34L90 45L171 694L104 704L109 743Z" />
<glyph unicode="F" glyph-name="F" horiz-adv-x="562" d="M109 743H576L567 592H521L511 693L245 700L209 409L457 413L452 351L205 357L163 47L280 34L276 0H13L16 34L90 46L171 694L104 704L109 743Z" />
<glyph unicode="G" glyph-name="G" horiz-adv-x="655" d="M541 44T522 39T494 30Q439 13 393 3T297 -8Q213 -8 157 38T75 158T49 313Q49 442 98 542T230 696T409 751Q474 751 518 744T604 724L623 718L595 574H548L546 672Q523 688 491 696T400 705Q313 705 251
647T158 499T126 318Q126 246 146 182T210 78T318 38Q364 38 412 51T487 87L517 301L380 308L385 353H600L556 46Q541 44 522 39Z" />
<glyph unicode="H" glyph-name="H" horiz-adv-x="740" d="M109 743H322L318 704L245 694L208 405H562L598 694L526 704L530 743H745L740 704L671 694L590 46L666 34L663 0H437L439 34L518 46L556 354H202L163 46L239 34L236 0H13L17 34L90 46L171 694L105 704L109 743Z" />
<glyph unicode="I" glyph-name="I" horiz-adv-x="337" d="M119 743H332L328 704L254 694L173 46L249 34L246 0H23L26 34L99 46L181 694L114 704L119 743Z" />
<glyph unicode="J" glyph-name="J" horiz-adv-x="345" d="M224 373T206 221T178 37Q151 -55 86 -104T-62 -168L-76 -134Q-10 -117 41 -67T107 44Q124 123 138 239T170 524L188 695L106 704L111 743H348L344 704L259 695Q224 373 206 221Z" />
<glyph unicode="K" glyph-name="K" horiz-adv-x="658" d="M386 322Q432 245 461 200Q513 117 532 90T566 54L632 37L627 0H510Q499 1 482 28T432 114L397 175L333 284Q314 319 294 352L187 236L163 46L239 34L236 0H13L17 34L90 46L171 694L105 704L109 743H322L318
704L245 694L196 311L540 694L472 704L477 743H677L671 704L613 695L339 400L386 322Z" />
<glyph unicode="L" glyph-name="L" horiz-adv-x="570" d="M109 743H334L331 704L245 694L163 46L429 50L490 219L534 210L487 0H14L17 34L90 46L171 694L105 704L109 743Z" />
<glyph unicode="M" glyph-name="M" horiz-adv-x="915" d="M512 292T606 490Q696 678 722 743H905L901 704L812 694L793 46L876 34L873 0H625L629 34L720 45L740 497L754 703L677 521L437 -2L395 -9L307 509L274 702L233 505L125 46L222 34L219 0H-24L-20 34L64
46L226 694L135 704L140 743H333L420 226L435 117L485 224Q512 292 606 490Z" />
<glyph unicode="N" glyph-name="N" horiz-adv-x="737" d="M106 743H250L502 183L541 72L615 695L536 704L541 743H752L749 704L673 694L578 0H507L257 556L218 667L149 46L232 34L229 0H15L18 34L86 45L171 694L100 704L106 743Z" />
<glyph unicode="O" glyph-name="O" horiz-adv-x="675" d="M475 753T529 710T611 595T638 433Q638 308 594 207T474 48T302 -10Q224 -10 169 32T85 148T57 312Q57 437 101 538T223 696T395 753Q475 753 529 710ZM313 704T255 655T164 519T131 322Q131 192 179 115T313
37Q382 37 439 86T528 223T561 419Q561 549 516 626T383 704Q313 704 255 655Z" />
<glyph unicode="P" glyph-name="P" horiz-adv-x="597" d="M247 743T295 747Q341 751 368 751Q477 751 534 703T591 556Q591 465 551 400T442 300T291 266Q262 266 190 270L164 46L253 34L250 0H13L17 34L90 46L171 694L105 704L109 743H220Q247 743 295 747ZM244
313T294 313Q513 314 513 559Q513 631 479 668T365 705Q341 705 306 702T245 695L196 321Q244 313 294 313Z" />
<glyph unicode="Q" glyph-name="Q" horiz-adv-x="677" d="M567 -150T529 -162T452 -175Q380 -175 331 -139T281 -37Q281 -19 283 -9Q210 -4 159 39T81 153T55 311Q55 437 99 538T221 696T394 753Q474 753 528 710T609 595T636 433Q636 315 597 218T488 62T332
-7Q333 -64 372 -85T477 -106Q502 -106 533 -99T586 -81L587 -134Q567 -150 529 -162ZM311 704T254 656T163 520T130 323Q130 192 178 115T311 38Q381 38 438 87T527 223T560 419Q560 549 514 626T381 704Q311 704 254 656Z" />
<glyph unicode="R" glyph-name="R" horiz-adv-x="649" d="M247 743T289 747Q331 751 352 751Q474 751 529 710T585 580Q585 491 532 426T390 337Q414 319 441 273T500 165L516 131Q537 85 547 68T572 45T618 39L617 0H524Q506 0 489 25T442 122Q399 222 369 275T309
328H234H193L161 46L253 34L250 0H21L24 34L90 46L171 694L105 704L109 743H226Q247 743 289 747ZM217 373T295 373H325Q381 376 423 403T488 475T511 574Q511 643 473 674T339 705Q321 705 294 703T242 697L199 374Q217 373 295 373Z" />
<glyph unicode="S" glyph-name="S" horiz-adv-x="529" d="M421 691T390 699T321 707Q261 707 216 676T171 585Q171 544 191 512T239 457T313 407Q372 369 400 348T451 290T474 204Q474 139 442 90T352 15T224 -11Q162 -11 104 3T26 32L46 168H90L96 66Q117 52
153 44T226 35Q268 35 308 50T374 98T400 178Q400 233 367 268T271 342Q216 376 182 402T123 468T98 560Q98 616 129 660T212 728T327 753Q390 753 435 741T505 711L483 584H443L438 679Q421 691 390 699Z" />
<glyph unicode="T" glyph-name="T" horiz-adv-x="598" d="M76 743H631L602 525L561 524L569 693L383 701L298 46L420 37L417 0H103L105 37L225 46L309 701L125 693L84 526L41 525L76 743Z" />
<glyph unicode="U" glyph-name="U" horiz-adv-x="673" d="M562 137T491 64T292 -10Q189 -10 133 47T75 208Q73 249 79 290L132 695L64 704L68 743H286L282 704L207 694L154 296Q147 250 149 204Q151 123 189 79T303 34Q397 34 449 101T519 306L570 694L504 704L508
743H703L699 704L635 695L584 306Q562 137 491 64Z" />
<glyph unicode="V" glyph-name="V" horiz-adv-x="590" d="M34 743H269L265 704L176 694L248 219L267 65L327 219L536 694L463 704L467 743H660L656 704L600 695L282 -5L217 -10L99 694L30 704L34 743Z" />
<glyph unicode="W" glyph-name="W" horiz-adv-x="875" d="M21 743H251L248 704L158 696L221 212L241 66L282 183L454 625L446 695L379 704L383 743H616L608 704L521 695L569 212L580 66L629 194L839 694L765 704L769 743H975L969 704L901 694L599 -5H523L469 520L261
-5H187L88 694L17 704L21 743Z" />
<glyph unicode="X" glyph-name="X" horiz-adv-x="632" d="M68 743H312L308 704L223 695L337 425L525 694L441 704L445 743H671L668 704L597 695L360 378L525 46L606 34L604 0H349L352 34L439 45L311 327L113 46L201 34L197 0H-31L-27 34L40 45L288 376L138 693L64
704L68 743Z" />
<glyph unicode="Y" glyph-name="Y" horiz-adv-x="573" d="M32 743H265L260 704L169 694L289 401L312 334L351 401L530 694L453 704L458 743H653L649 704L595 695L336 286L305 46L413 34L409 0H118L121 34L235 46L266 286L86 694L29 704L32 743Z" />
<glyph unicode="Z" glyph-name="Z" horiz-adv-x="584" d="M120 743H578L587 709L164 134L93 42L449 52L506 185L551 172L506 0H13L3 36L415 594L502 698L178 695L137 566L92 575L120 743Z" />
<glyph unicode="[" glyph-name="bracketleft" horiz-adv-x="417" d="M126 -88T112 -76T98 -33Q98 -5 99 11Q102 67 117 174T160 453Q195 678 203 745Q210 802 227 822T289 843Q325 843 372 834T425 824L420 790H278L164 -35L309 -36L305 -70Q231 -88 161 -88Q126
-88 112 -76Z" />
<glyph unicode="\" glyph-name="backslash" horiz-adv-x="417" d="M347 -177L65 780H130L412 -177H347Z" />
<glyph unicode="]" glyph-name="bracketright" horiz-adv-x="417" d="M316 848T330 836T344 793Q344 765 343 749Q340 693 325 586T282 307Q247 82 239 15Q232 -42 215 -62T153 -83Q117 -83 70 -74T17 -64L22 -30H164L278 795L133 796L137 830Q211 848 281 848Q316
848 330 836Z" />
<glyph unicode="^" glyph-name="asciicircum" horiz-adv-x="666" d="M293 748H370L575 202H516L332 668L148 202H90L293 748Z" />
<glyph unicode="_" glyph-name="underscore" horiz-adv-x="652" d="M626 -106L619 -165H-54L-46 -106H626Z" />
<glyph unicode="`" glyph-name="grave" horiz-adv-x="264" d="M171 636T109 695T29 787L85 844L233 637L208 613Q171 636 109 695Z" />
<glyph unicode="a" glyph-name="a" horiz-adv-x="573" d="M441 79T441 72Q441 56 447 49T461 42Q471 42 480 48T505 70L519 49Q515 41 501 27T467 2T423 -10Q363 -10 367 57L373 100Q339 55 293 23T198 -10Q119 -10 81 47T43 201Q43 281 81 366T190 510T355 568Q376
568 403 563T453 551L507 567L442 84Q441 79 441 72ZM393 520T344 520Q275 520 224 472T146 352T119 210Q119 132 141 89T211 46Q258 46 304 83T382 166L425 497Q393 520 344 520Z" />
<glyph unicode="b" glyph-name="b" horiz-adv-x="574" d="M227 513T270 540T365 568Q447 568 489 510T531 356Q531 277 494 192T386 48T222 -10Q192 -10 158 -2T102 16L64 -2L163 740L116 757L124 790L224 806L244 794L201 475Q227 513 270 540ZM175 38T233 38Q303
38 353 87T429 210T455 351Q455 427 429 469T353 512Q303 512 259 479T191 407L145 63Q175 38 233 38Z" />
<glyph unicode="c" glyph-name="c" horiz-adv-x="435" d="M377 492T352 501T305 510Q247 510 204 474T138 372T115 221Q115 135 146 90T233 45Q273 45 304 59T375 106L390 74Q363 43 319 17T213 -10Q130 -10 84 48T37 210Q37 290 71 373T170 512T322 568Q349 568
379 562T430 544L408 469L398 477Q377 492 352 501Z" />
<glyph unicode="d" glyph-name="d" horiz-adv-x="574" d="M441 73T441 65Q441 54 444 48T454 42Q472 42 501 68L514 47Q503 30 476 10T416 -10Q364 -10 367 50V78Q339 41 296 16T203 -10Q123 -10 82 47T41 201Q41 281 79 366T188 510T354 568Q394 568 439 554L468
740L405 756L413 789L527 806L548 794L442 77Q441 73 441 65ZM399 520T342 520Q271 520 220 471T143 348T117 207Q117 131 142 89T215 46Q264 46 308 77T377 146L430 493Q399 520 342 520Z" />
<glyph unicode="e" glyph-name="e" horiz-adv-x="513" d="M414 55T358 23T237 -10Q172 -10 129 20T66 98T45 204Q45 298 82 382T185 517T330 568Q397 568 432 534T467 446Q467 375 406 327T264 254T123 228Q122 221 122 205Q122 141 152 93T246 45Q289 45 335
64T422 124L440 91Q414 55 358 23ZM261 522T220 483T155 386T125 272Q183 274 245 294T350 352T392 439Q392 479 371 500T313 522Q261 522 220 483Z" />
<glyph unicode="f" glyph-name="f" horiz-adv-x="342" d="M168 666T197 713T268 787T354 815Q401 815 431 803L409 737Q377 759 338 758Q295 758 267 720T231 617L225 564H354L348 508H218L148 -36Q136 -135 92 -192T-21 -250Q-44 -251 -67 -249T-101 -244L-81
-178Q-74 -182 -47 -188T-2 -194Q30 -194 46 -160T71 -62L143 508H74L81 538L152 562L159 610Q168 666 197 713Z" />
<glyph unicode="g" glyph-name="g" horiz-adv-x="561" d="M411 -110T369 -157T272 -226T163 -248Q133 -248 103 -243T56 -231L75 -159Q100 -170 132 -178T199 -186Q268 -186 301 -159T345 -64L367 78Q338 41 296 16T203 -10Q123 -10 82 47T41 201Q41 281 79 366T188
510T354 568Q381 568 409 562T459 547L515 568L421 -38Q411 -110 369 -157ZM398 520T342 520Q271 520 220 471T143 348T117 207Q117 131 142 89T215 46Q264 46 308 77T377 146L429 494Q398 520 342 520Z" />
<glyph unicode="h" glyph-name="h" horiz-adv-x="605" d="M232 486T291 527T409 568Q464 568 492 535T520 423Q520 380 499 275L494 247L489 220Q471 126 467 77Q465 41 481 41Q492 41 503 48T534 72L546 50Q541 42 526 28T489 2T442 -10Q390 -10 390 42Q390 63
395 98T407 168Q409 177 417 223L421 244Q432 301 438 342T445 419Q445 468 429 487T378 506Q333 506 276 464T180 363L131 0H60L158 740L102 756L108 789L218 806L238 794L188 425Q232 486 291 527Z" />
<glyph unicode="i" glyph-name="i" horiz-adv-x="309" d="M160 67Q160 55 164 49T175 42Q186 42 198 50T228 76L241 55Q228 35 200 13T137 -10Q84 -10 84 41Q84 71 117 288Q135 408 147 494L82 514L88 545L210 566L230 556L161 77L160 67ZM191 684T179 697T166
732Q167 757 184 774T221 792Q242 792 254 780T265 747Q265 721 249 703T209 684Q191 684 179 697Z" />
<glyph unicode="j" glyph-name="j" horiz-adv-x="316" d="M157 -124T104 -188T-35 -253Q-59 -253 -77 -249T-104 -235L-90 -203Q-83 -206 -70 -208T-47 -211Q21 -211 55 -147T102 28L155 494L87 514L93 545L218 566L237 556L172 1Q157 -124 104 -188ZM197 684T185
697T172 732Q173 757 190 774T227 792Q248 792 260 780T271 747Q271 721 255 703T215 684Q197 684 185 697Z" />
<glyph unicode="k" glyph-name="k" horiz-adv-x="519" d="M213 806L233 794L126 0H55L153 740L97 756L103 789L213 806ZM219 326T240 339Q289 370 319 394T372 448Q386 467 391 484T400 523Q404 544 418 556T450 568Q466 568 477 557T489 528Q491 500 468 467Q442
430 392 395T270 317L245 302L390 92Q404 71 420 58T448 45Q471 45 500 74L513 49Q500 27 470 9T408 -10Q365 -10 333 43L179 298Q219 326 240 339Z" />
<glyph unicode="l" glyph-name="l" horiz-adv-x="296" d="M146 67Q146 55 150 49T160 42Q183 42 214 76L227 55Q217 37 187 14T123 -10Q98 -10 86 4T74 50Q74 53 77 83L170 740L112 756L120 789L229 806L248 794L147 77L146 67Z" />
<glyph unicode="m" glyph-name="m" horiz-adv-x="924" d="M240 490T299 529T415 568Q468 568 495 537T523 439Q564 495 616 531T720 568Q773 568 803 533T833 423Q833 399 828 363T816 290L809 247Q807 238 797 180T784 77L783 65Q783 42 795 42Q807 42 820 50T851
76L863 55Q851 36 822 13T758 -10Q733 -10 721 2T709 43Q709 66 714 103T726 176Q732 210 734 226L740 260Q759 366 759 419Q759 468 744 486T693 505Q655 505 607 469T521 377Q516 328 504 247L470 0H396L428 223Q438 289 444 334T450 419Q450 470 436 488T383
506Q339 506 283 465T188 364L139 0H67L132 489L84 512L91 547L191 568L209 558L196 431Q240 490 299 529Z" />
<glyph unicode="n" glyph-name="n" horiz-adv-x="614" d="M240 490T299 529T415 568Q469 568 497 535T526 424Q526 378 505 275L500 247L496 223Q478 127 474 77V69Q474 42 485 42Q506 42 533 68L545 46Q541 39 526 25T490 1T446 -10Q396 -10 396 44Q396 65 401
99T413 166L424 223L428 244Q439 301 445 342T452 419Q452 469 437 487T383 506Q339 506 283 465T188 364L139 0H67L132 489L84 512L91 547L191 568L210 558L196 431Q240 490 299 529Z" />
<glyph unicode="o" glyph-name="o" horiz-adv-x="558" d="M412 568T462 508T512 338Q512 251 477 171T378 40T236 -10Q143 -10 93 49T42 216Q42 306 77 387T176 518T319 568Q412 568 462 508ZM247 520T205 475T141 361T119 221Q119 133 153 86T250 38Q307 38 349
83T413 198T435 336Q435 424 403 472T306 520Q247 520 205 475Z" />
<glyph unicode="p" glyph-name="p" horiz-adv-x="564" d="M220 515T262 541T354 568Q436 568 478 510T521 356Q521 276 483 191T375 48T211 -10Q182 -10 130 2L95 -254H24L126 497L73 516L80 547L185 568L203 558L193 476Q220 515 262 541ZM169 38T223 38Q291
38 341 86T418 208T444 351Q444 428 417 470T343 512Q296 512 254 482T187 413L138 62Q169 38 223 38Z" />
<glyph unicode="q" glyph-name="q" horiz-adv-x="562" d="M403 -180T407 -191T416 -202Q439 -202 471 -167L484 -189Q473 -206 442 -229T376 -253Q327 -253 330 -194L365 75Q337 39 295 15T203 -10Q123 -10 82 47T41 201Q41 281 79 366T188 510T354 568Q378 568
405 562T455 547L500 556L404 -166Q403 -180 407 -191ZM390 520T342 520Q272 520 221 472T144 350T117 207Q117 130 143 88T215 46Q262 46 305 75T374 141L420 498Q390 520 342 520Z" />
<glyph unicode="r" glyph-name="r" horiz-adv-x="408" d="M206 456T234 488T301 544T384 567Q408 567 416 561L399 480Q386 487 353 487Q306 487 258 451T183 347L140 0H67L130 487L80 510L87 545L188 566L206 557L199 469L193 427Q206 456 234 488Z" />
<glyph unicode="s" glyph-name="s" horiz-adv-x="425" d="M371 492T338 504T263 517Q214 517 185 497T151 438Q148 399 172 370T238 310Q243 306 278 279T335 216T356 142Q356 71 301 31T165 -10Q120 -10 77 -1T21 21L34 80Q53 66 90 55T169 43Q219 43 252 62T286
128Q286 155 272 177T239 215T188 253Q147 281 114 321T81 415Q81 461 106 496T174 549T267 568Q303 568 340 562T392 548L377 482Q371 492 338 504Z" />
<glyph unicode="t" glyph-name="t" horiz-adv-x="357" d="M155 109T155 92Q155 65 165 55T203 45Q224 45 255 59T303 88L311 57Q293 35 248 13T165 -10Q80 -10 80 72Q80 90 84 131L133 509H72L80 543L142 562Q163 591 195 691H231L214 563H353L346 509H208L162
168Q155 109 155 92Z" />
<glyph unicode="u" glyph-name="u" horiz-adv-x="587" d="M163 247Q153 171 153 136Q153 83 172 64T230 44Q271 44 317 77T394 153L447 562H519L455 78Q454 74 454 66Q454 42 467 42Q488 42 522 77L534 55Q523 38 492 15T427 -9Q405 -9 393 4T380 41Q380 46 382
58Q385 70 387 95L386 96Q349 51 302 21T200 -10Q142 -10 112 20T81 124Q81 173 98 296L125 487L77 510L83 545L184 566L203 556L169 292L163 247Z" />
<glyph unicode="v" glyph-name="v" horiz-adv-x="517" d="M83 511T64 511Q54 511 46 506T27 491L16 516Q25 530 49 548T103 567Q134 567 146 551T162 500L200 172L211 64L286 160Q337 233 369 302T413 450Q414 464 412 475T404 501Q398 519 398 525Q398 546 407
556T433 567Q457 567 471 542T485 475Q485 410 443 323T341 153L223 -4L166 -10L137 172L88 477Q83 511 64 511Z" />
<glyph unicode="w" glyph-name="w" horiz-adv-x="828" d="M85 495T80 503T65 511Q56 512 49 508T35 498T27 491L16 516Q24 530 49 548T104 567Q136 567 148 552T165 500L203 152L212 59L250 142L432 563H498L534 152L542 59L608 154Q642 202 681 290T724 451Q725
469 721 483T715 500Q709 520 709 525Q709 545 719 556T745 567Q795 567 795 471Q795 409 756 324T659 153L559 -4L488 -9L471 157L447 393L443 458L421 392L301 141L231 -4L167 -10L140 158L89 477Q85 495 80 503Z" />
<glyph unicode="x" glyph-name="x" horiz-adv-x="496" d="M126 500T119 507T98 514Q84 514 70 505T49 487L34 509Q43 525 71 545T131 566Q162 566 177 554T200 515L253 336L416 562H495L275 276L367 72Q374 56 380 49T398 42Q423 42 456 78L470 56Q466 48 450
32T411 3T364 -10Q335 -10 322 2T299 42L235 232L68 0H-10L213 292L133 484Q126 500 119 507Z" />
<glyph unicode="y" glyph-name="y" horiz-adv-x="523" d="M91 496T86 503T71 510Q62 510 52 504T27 482L15 507Q24 523 51 544T109 566Q140 566 152 550T168 499L219 126L233 -13L317 148L345 204Q388 288 408 344T429 463Q429 476 420 498Q412 516 412 525Q412
546 422 555T448 565Q473 565 486 543T500 478Q500 411 469 337T386 168L372 142Q267 -73 194 -161Q170 -195 128 -221T25 -247Q5 -247 -19 -243T-60 -232L-42 -170Q-26 -178 -8 -183T40 -189Q82 -189 131 -153T218 -39H184L95 476Q91 496 86 503Z" />
<glyph unicode="z" glyph-name="z" horiz-adv-x="505" d="M290 497T197 497Q165 497 163 496Q139 495 123 465T105 397H73Q72 438 81 490T110 556Q123 566 154 566Q194 566 304 558Q395 551 433 551Q460 551 479 565L500 543L266 234L109 62L332 58Q370 58 390
82T417 154H449Q445 100 435 56T405 -1Q387 -11 356 -11Q325 -11 273 -7T204 -2Q106 6 80 6Q53 6 32 -11L7 14L334 412L406 493Q290 497 197 497Z" />
<glyph unicode="{" glyph-name="braceleft" horiz-adv-x="498" d="M157 -25T176 105T203 283Q204 303 173 320Q140 341 89 354L96 404Q160 419 193 435Q228 450 231 472L273 745Q279 784 288 804T313 833T360 842Q387 842 431 835T489 824Q488 820 487 809T484
790H349L301 474Q298 454 286 439T249 412Q231 404 208 394T169 379Q227 351 245 335Q272 314 272 290Q272 284 271 281L224 -35H358L354 -70Q313 -79 285 -83T220 -88Q184 -88 170 -76T157 -32Q157 -25 176 105Z" />
<glyph unicode="|" glyph-name="bar" horiz-adv-x="417" d="M187 869H251V-91H187V869Z" />
<glyph unicode="}" glyph-name="braceright" horiz-adv-x="498" d="M360 780T341 650T314 472Q313 452 344 435Q377 414 428 401L421 351Q357 336 324 320Q289 305 286 283L244 10Q238 -29 229 -49T204 -78T157 -87Q130 -87 86 -80T28 -69Q29 -65 30 -54T33 -35H168L216
281Q219 301 231 316T268 343Q286 351 309 361T348 376Q290 404 272 420Q245 441 245 465Q245 471 246 474L293 790H159L163 825Q204 834 232 838T297 843Q333 843 347 831T360 787Q360 780 341 650Z" />
<glyph unicode="~" glyph-name="asciitilde" horiz-adv-x="555" d="M83 434T105 457T158 495T225 511Q251 511 271 500T318 465Q339 445 356 435T392 425Q455 425 494 488L521 458Q510 421 470 391T377 360Q351 360 331 372T284 407Q261 427 246 436T211 446Q179
446 151 430T103 383L76 413Q83 434 105 457Z" />
<glyph unicode="&#xa0;" glyph-name="uni00A0" horiz-adv-x="237" />
<glyph unicode="&#xa1;" glyph-name="exclamdown" horiz-adv-x="335" d="M270 594T252 574T210 553Q188 553 177 564T165 595Q165 626 184 645T229 665Q247 665 258 654T270 623Q270 594 252 574ZM145 -212H55L166 418H218L145 -212Z" />
<glyph unicode="&#xa2;" glyph-name="cent" horiz-adv-x="516" d="M206 -6Q139 6 103 62T66 210Q66 282 94 358T177 491T305 563L328 663H385L362 567Q387 566 413 560T458 544L437 469L427 477Q378 510 334 510Q276 510 233 474T167 372T144 221Q144 134 175
90T262 45Q302 45 332 59T404 106L419 74Q394 46 355 21T261 -9L244 -105H188L206 -6Z" />
<glyph unicode="&#xa3;" glyph-name="sterling" horiz-adv-x="668" d="M340 -12T292 0T178 34Q159 42 144 46Q127 24 98 8T43 -8Q29 -8 20 0T14 29Q16 44 33 60T76 86T128 97Q142 115 154 156T174 239L196 366H104L111 417H204L215 484Q227 555 262 617T353 717T473
755Q520 755 549 747T601 715L559 649Q547 665 513 682T438 700Q386 700 345 649T287 485L275 417H439L433 366H265Q258 331 257 316Q245 233 228 182T177 83Q200 78 233 66Q277 50 313 41T390 32Q545 32 545 153Q545 179 532 204T503 243L554 293Q584 269 602
234T621 157Q620 88 570 38T396 -12Q340 -12 292 0Z" />
<glyph unicode="&#xa4;" glyph-name="currency" horiz-adv-x="752" d="M209 206Q165 263 165 337Q165 410 208 467L116 560L158 604L252 509Q310 551 379 551Q453 551 511 506L604 598L646 554L554 461Q594 405 594 337Q594 267 552 209L645 116L602 71L508 166Q452
123 379 123Q310 123 254 163L160 69L118 113L209 206ZM220 293T241 256T299 197T379 175Q423 175 459 197T517 256T539 337Q539 381 518 418T460 477T379 499Q336 499 300 477T242 418T220 337Q220 293 241 256Z" />
<glyph unicode="&#xa5;" glyph-name="yen" horiz-adv-x="724" d="M140 411H323L162 696L99 704L103 743H341L337 704L238 697L366 468L391 412L428 471L595 697L512 704L517 743H732L728 705L666 693L443 411H624L619 359H409L395 237H604L599 186H389L373 46L490
34L487 0H187L190 34L307 46L323 186H114L120 237H329L343 359H134L140 411Z" />
<glyph unicode="&#xa6;" glyph-name="brokenbar" horiz-adv-x="417" d="M188 869H251V433H188V869ZM188 346H251V-91H188V346Z" />
<glyph unicode="&#xa7;" glyph-name="section" horiz-adv-x="583" d="M86 112L95 -1Q118 -26 162 -36T255 -46Q292 -46 331 -32T398 12T433 83L434 93Q434 122 414 143T363 179T279 214Q218 237 180 256T115 307T88 381Q88 416 108 459T159 535Q122 572 122 620Q122
632 123 639Q130 702 172 742T269 799T367 817Q428 817 479 806T554 780L536 633H500L484 743Q470 759 433 767T356 775Q301 774 251 747T192 658Q188 625 208 601T258 560T345 520Q405 495 442 475T504 425T530 351Q530 339 529 332Q524 295 508 259T468 193Q501
160 501 112Q501 101 500 95Q493 36 452 -6T353 -69T244 -91Q187 -91 117 -77T27 -49L47 112H86ZM466 348T444 372T390 414T303 455Q227 485 191 509Q174 488 163 462T152 412Q152 379 174 355T228 315T315 277Q394 247 434 221Q466 272 466 314Q466 348 444 372Z"
/>
<glyph unicode="&#xa8;" glyph-name="dieresis" horiz-adv-x="395" d="M69 685T57 698T44 732Q45 757 61 774T99 792Q120 792 132 780T144 747Q143 721 126 703T86 685Q69 685 57 698ZM275 685T263 698T250 732Q251 757 267 774T305 792Q326 792 338 780T350 747Q349
721 332 703T292 685Q275 685 263 698Z" />
<glyph unicode="&#xa9;" glyph-name="copyright" horiz-adv-x="863" d="M87 493T136 577T271 711T456 761Q556 761 640 712T775 578T825 393Q825 292 776 208T641 74T456 25Q356 25 271 74T137 207T87 393Q87 493 136 577ZM132 304T175 230T292 111T456 67Q544
67 618 111T736 230T780 393Q780 482 737 556T619 675T456 719Q367 719 293 675T175 556T132 393Q132 304 175 230ZM265 452T290 501T363 579T473 608Q507 608 539 603T587 590V490H559L539 556Q528 565 507 570T458 575Q399 575 361 532T323 411Q323 347 343 304T396
239T465 218Q497 218 527 227T581 250L592 223Q570 205 530 192T449 178Q392 178 351 206T287 284T265 393Q265 452 290 501Z" />
<glyph unicode="&#xaa;" glyph-name="ordfeminine" horiz-adv-x="417" d="M358 433T358 421Q358 400 369 400Q382 400 403 416L413 399Q407 391 382 377T334 363Q316 363 305 376T293 411Q293 420 296 432Q242 363 167 363Q109 363 78 401T46 508Q46 570 79 631T170
731T296 770Q337 770 381 756L420 771L359 440Q358 433 358 421ZM332 716T316 723T287 730Q235 730 196 698T136 617T115 514Q115 409 196 409Q241 409 298 464L342 704Q332 716 316 723Z" />
<glyph unicode="&#xab;" glyph-name="guillemotleft" horiz-adv-x="913" d="M381 329L721 530L735 485L463 300L684 118L658 74L374 267L381 329ZM455 329L795 530L809 485L537 300L758 118L732 74L448 267L455 329Z" />
<glyph unicode="&#xac;" glyph-name="logicalnot" horiz-adv-x="669" d="M110 409H580L551 157H485L509 357H104L110 409Z" />
<glyph unicode="&#xad;" glyph-name="uni00AD" horiz-adv-x="621" d="M124 408H530L523 346H117L124 408Z" />
<glyph unicode="&#xae;" glyph-name="registered" horiz-adv-x="863" d="M87 494T136 578T271 712T456 761Q556 761 640 712T775 579T825 394Q825 293 775 209T641 75T456 25Q356 25 271 74T137 208T87 394Q87 494 136 578ZM132 305T175 230T292 111T456 67Q544
67 618 111T736 230T780 394Q780 482 737 557T619 676T456 720Q367 720 293 676T175 557T132 394Q132 305 175 230ZM326 221V563L279 573V605H349Q364 604 394 606Q426 608 466 608Q540 608 579 578T620 495Q620 391 501 374Q528 359 545 336T580 277Q594 252 602
239T622 219Q633 214 653 214V183H588Q577 183 567 197T542 244Q519 291 498 321T444 367H378V221L438 213V183H279V213L326 221ZM396 399T466 399Q510 399 535 425T561 487Q561 529 534 550T456 572Q402 572 378 567V402Q396 399 466 399Z" />
<glyph unicode="&#xaf;" glyph-name="overscore" horiz-adv-x="300" d="M31 757H280L272 699H23L31 757Z" />
<glyph unicode="&#xb0;" glyph-name="degree" horiz-adv-x="439" d="M212 466T177 487T121 544T100 622Q100 666 121 702T181 760T265 781Q309 781 344 761T400 705T421 628Q421 583 399 546T339 488T255 466Q212 466 177 487ZM306 514T337 546T369 628Q369 673
339 703T263 733Q215 733 184 702T152 622Q152 577 183 546T258 514Q306 514 337 546Z" />
<glyph unicode="&#xb1;" glyph-name="plusminus" horiz-adv-x="669" d="M298 262L312 349L233 346H123L129 408H240L317 404L326 491L338 603H405L393 491L378 404L443 408H568L562 346H437L373 349Q372 344 372 339T371 328L365 262L351 144H284L298 262ZM88
15L94 73H519L512 15H88Z" />
<glyph unicode="&#xb2;" glyph-name="uni00B2" horiz-adv-x="498" d="M175 448T278 535T382 706Q382 739 358 761T289 783Q246 783 205 765T139 721L116 749Q141 780 194 807T306 835Q374 835 411 802T449 722Q449 668 402 605T282 486T137 389L392 400L430 478L468
470L435 343H73L62 382Q175 448 278 535Z" />
<glyph unicode="&#xb3;" glyph-name="uni00B3" horiz-adv-x="498" d="M195 336T159 343T93 365L97 407Q125 394 157 387T217 379Q295 379 344 407T398 489Q401 525 374 551T299 578Q292 578 288 577L257 567Q223 554 211 552L205 594Q250 604 288 622Q383 664
383 729Q383 757 364 772T294 788Q256 788 220 773T156 735L137 769Q170 798 218 817T318 836Q379 836 415 811T451 746L450 735Q443 646 326 601Q380 604 412 587T456 544T466 490Q462 446 430 411T345 356T226 336Q195 336 159 343Z" />
<glyph unicode="&#xb4;" glyph-name="acute" horiz-adv-x="273" d="M186 844L239 791Q229 774 195 737T120 664T52 613L28 637L186 844Z" />
<glyph unicode="&#xb5;" glyph-name="uni00B5" horiz-adv-x="666" d="M62 -182L114 175Q122 229 127 257Q148 387 157 469Q158 475 158 487Q158 510 144 510Q132 510 109 489L96 510Q104 525 129 543T184 562Q211 562 223 548T233 499Q229 447 211 333Q209 321
203 287Q187 195 187 146Q187 44 272 44Q311 44 355 70T428 127L487 557H559L497 92Q494 76 494 63Q494 42 508 42Q524 42 547 65L561 42Q549 27 523 9T469 -9Q443 -9 431 1T418 40Q418 46 420 64Q388 32 343 11T245 -10Q217 -9 195 1T163 28L131 -182H62Z" />
<glyph unicode="&#xb6;" glyph-name="paragraph" horiz-adv-x="666" d="M128 34L218 46L258 366Q175 368 126 413T77 541Q77 642 142 698T346 755Q379 755 459 750Q513 746 537 746H657L653 706L569 693L509 200L491 46L568 34L565 0H412L495 692L372 694L284
0H125L128 34Z" />
<glyph unicode="&#xb7;" glyph-name="middot" horiz-adv-x="335" d="M115 367T133 387T176 407Q199 407 210 396T221 365Q221 334 202 315T157 295Q138 295 127 306T115 338Q115 367 133 387Z" />
<glyph unicode="&#xb8;" glyph-name="cedilla" horiz-adv-x="234" d="M183 10Q200 -19 200 -66Q200 -146 164 -186T69 -227Q50 -227 32 -223T6 -213L12 -154Q18 -158 32 -160T62 -163Q107 -163 130 -130T154 -42Q154 -13 145 10L163 12L183 10Z" />
<glyph unicode="&#xb9;" glyph-name="uni00B9" horiz-adv-x="498" d="M249 390L295 751Q249 730 149 712L146 752Q207 771 254 789T337 833H338L367 826L313 390L440 380L436 342H116L120 381L249 390Z" />
<glyph unicode="&#xba;" glyph-name="ordmasculine" horiz-adv-x="417" d="M344 776T386 729T428 603Q428 528 396 473T313 388T207 358Q134 358 89 405T44 530Q44 604 78 660T163 746T267 776Q344 776 386 729ZM216 737T184 708T134 632T116 537Q116 475 143
437T209 399Q279 399 317 456T355 596Q355 659 330 698T260 737Q216 737 184 708Z" />
<glyph unicode="&#xbb;" glyph-name="guillemotright" horiz-adv-x="913" d="M421 275L81 74L67 119L339 304L118 486L144 530L428 337L421 275ZM751 275L411 74L397 119L669 304L448 486L474 530L758 337L751 275Z" />
<glyph unicode="&#xbc;" glyph-name="onequarter" horiz-adv-x="1179" d="M109 297L238 306L284 667Q238 646 138 628L135 668Q196 687 243 705T327 749L356 742L302 306L429 296L425 258H105L109 297ZM401 0L733 747H793L461 0H401ZM948 -7L960 94H702L688 127L949
505H972L1007 473L790 179L755 131L966 143L981 266L1045 273L1030 146L1122 151L1115 94H1023L1011 -7H948Z" />
<glyph unicode="&#xbd;" glyph-name="onehalf" horiz-adv-x="1184" d="M109 297L238 306L284 667Q238 646 138 628L135 668Q196 687 243 705T327 749L356 742L302 306L429 296L425 258H105L109 297ZM401 0L733 747H793L461 0H401ZM701 39Q815 105 918 191T1021
363Q1021 396 997 417T928 439Q885 439 844 421T778 378L755 406Q780 437 833 464T944 492Q1012 492 1050 459T1088 379Q1088 325 1041 262T921 143T776 46L1031 57L1069 134L1106 126L1074 0H711L701 39Z" />
<glyph unicode="&#xbe;" glyph-name="threequarters" horiz-adv-x="1179" d="M184 251T148 258T82 280L86 322Q114 309 146 302T206 294Q284 294 333 322T387 404Q390 440 363 466T288 493Q281 493 277 492L246 482Q212 469 200 467L194 509Q239 519 277 537Q372
579 372 644Q372 672 353 687T283 703Q245 703 209 688T145 650L126 684Q159 713 207 732T307 751Q368 751 404 726T440 661L439 650Q432 561 315 516Q369 519 401 502T445 459T455 405Q451 361 419 326T334 271T215 251Q184 251 148 258ZM401 0L733 747H793L461
0H401ZM948 -7L960 94H702L688 127L949 505H972L1007 473L790 179L755 131L966 143L981 266L1045 273L1030 146L1122 151L1115 94H1023L1011 -7H948Z" />
<glyph unicode="&#xbf;" glyph-name="questiondown" horiz-adv-x="502" d="M345 627T327 607T284 587Q240 587 240 630Q240 661 259 680T303 699Q322 699 333 688T345 656Q345 627 327 607ZM360 453T368 415T377 342Q377 300 342 269T236 201Q185 176 158 157T108
102Q94 72 94 44Q94 -38 141 -85T275 -133Q338 -133 375 -115L365 -169Q353 -180 321 -187T255 -195Q133 -195 82 -137T31 9Q31 71 60 118Q82 157 115 182T207 240Q261 272 285 295T310 355Q310 379 306 407T295 452L342 472L348 471Q360 453 368 415Z" />
<glyph unicode="&#xc0;" glyph-name="Agrave" horiz-adv-x="655" d="M359 743H434L562 47L644 34L642 0H396L398 34L488 45L458 225H169L84 46L174 34L171 0H-59L-55 34L13 45L359 743ZM385 679L192 272H450L392 622L385 679ZM372 812T323 854T257 931L306 977L439
806L414 788Q372 812 323 854Z" />
<glyph unicode="&#xc1;" glyph-name="Aacute" horiz-adv-x="655" d="M359 743H434L562 47L644 34L642 0H396L398 34L488 45L458 225H169L84 46L174 34L171 0H-59L-55 34L13 45L359 743ZM385 679L192 272H450L392 622L385 679ZM503 977L549 931Q531 896 482 855T389
788L365 806L503 977Z" />
<glyph unicode="&#xc2;" glyph-name="Acircumflex" horiz-adv-x="655" d="M359 743H434L562 47L644 34L642 0H396L398 34L488 45L458 225H169L84 46L174 34L171 0H-59L-55 34L13 45L359 743ZM385 679L192 272H450L392 622L385 679ZM244 818L402 977H468L576 817L550
793L432 919L268 795L244 818Z" />
<glyph unicode="&#xc3;" glyph-name="Atilde" horiz-adv-x="655" d="M359 743H434L562 47L644 34L642 0H396L398 34L488 45L458 225H169L84 46L174 34L171 0H-59L-55 34L13 45L359 743ZM385 679L192 272H450L392 622L385 679ZM254 914T281 936T347 959Q369 959
386 949T424 921Q444 904 458 896T489 888Q515 888 531 901T564 937L586 905Q573 873 547 849T482 824Q457 824 440 834T403 863Q384 880 371 888T339 896Q314 896 296 883T261 847L239 879Q254 914 281 936Z" />
<glyph unicode="&#xc4;" glyph-name="Adieresis" horiz-adv-x="655" d="M359 743H434L562 47L644 34L642 0H396L398 34L488 45L458 225H169L84 46L174 34L171 0H-59L-55 34L13 45L359 743ZM385 679L192 272H450L392 622L385 679ZM293 851T281 864T268 898Q269
922 286 940T323 958Q343 958 355 945T367 912Q367 887 350 869T310 851Q293 851 281 864ZM497 851T485 864T473 899Q473 923 490 940T528 958Q547 958 559 946T572 914Q572 888 556 870T515 851Q497 851 485 864Z" />
<glyph unicode="&#xc5;" glyph-name="Aring" horiz-adv-x="655" d="M313 749T290 777T267 845Q267 884 292 914T355 959T432 975Q490 975 525 946T561 871Q561 817 525 783T435 738L562 47L644 34L642 0H396L398 34L488 45L458 225H169L84 46L174 34L171 0H-59L-55
34L13 45L356 739Q313 749 290 777ZM384 943T350 918T316 850Q316 814 340 790T404 766Q448 766 479 792T511 867Q511 900 488 921T426 943Q384 943 350 918ZM385 679L192 272H450L392 622L385 679Z" />
<glyph unicode="&#xc6;" glyph-name="AE" horiz-adv-x="888" d="M209 743H858L854 600H814L798 695L563 700L525 407L743 417L738 352L521 358L483 46L772 55L819 158L858 146L823 0H340L344 34L408 45L432 244H185L84 46L195 34L192 0H-79L-73 34L8 45L356 695L204
704L209 743ZM414 694L209 292H437L485 691L414 694Z" />
<glyph unicode="&#xc7;" glyph-name="Ccedilla" horiz-adv-x="602" d="M307 704T246 647T153 503T122 325Q122 252 141 187T202 81T312 39Q354 39 398 52T460 87L491 196H537L517 34Q509 32 479 22T410 4T335 -7Q344 -30 344 -65Q344 -145 308 -185T213 -226Q194
-226 176 -222T150 -212L156 -153Q162 -157 176 -159T206 -162Q251 -162 274 -129T298 -41Q298 -22 295 -8Q208 -7 152 40T70 161T44 318Q44 445 93 543T224 696T403 751Q460 751 498 745T575 728L596 721L566 544H522L519 678Q499 690 471 697T395 704Q307 704
246 647Z" />
<glyph unicode="&#xc8;" glyph-name="Egrave" horiz-adv-x="597" d="M336 812T287 854T221 931L270 977L403 806L378 788Q336 812 287 854ZM109 743H557L554 592H513L497 695L247 701L209 410L444 413L440 352L205 358L163 46L466 55L521 167L560 154L517 0H13L16
34L90 45L171 694L104 704L109 743Z" />
<glyph unicode="&#xc9;" glyph-name="Eacute" horiz-adv-x="597" d="M467 977L513 931Q495 896 446 855T353 788L329 806L467 977ZM109 743H557L554 592H513L497 695L247 701L209 410L444 413L440 352L205 358L163 46L466 55L521 167L560 154L517 0H13L16 34L90
45L171 694L104 704L109 743Z" />
<glyph unicode="&#xca;" glyph-name="Ecircumflex" horiz-adv-x="597" d="M109 743H557L554 592H513L497 695L247 701L209 410L444 413L440 352L205 358L163 46L466 55L521 167L560 154L517 0H13L16 34L90 45L171 694L104 704L109 743ZM208 818L366 977H432L540
817L514 793L396 919L232 795L208 818Z" />
<glyph unicode="&#xcb;" glyph-name="Edieresis" horiz-adv-x="597" d="M257 851T245 864T232 898Q233 922 250 940T287 958Q307 958 319 945T331 912Q331 887 314 869T274 851Q257 851 245 864ZM461 851T449 864T437 899Q437 923 454 940T492 958Q511 958 523
946T536 914Q536 888 520 870T479 851Q461 851 449 864ZM109 743H557L554 592H513L497 695L247 701L209 410L444 413L440 352L205 358L163 46L466 55L521 167L560 154L517 0H13L16 34L90 45L171 694L104 704L109 743Z" />
<glyph unicode="&#xcc;" glyph-name="Igrave" horiz-adv-x="337" d="M119 743H332L328 704L254 694L173 46L249 34L246 0H23L26 34L99 46L181 694L114 704L119 743ZM210 812T161 854T95 931L144 977L277 806L252 788Q210 812 161 854Z" />
<glyph unicode="&#xcd;" glyph-name="Iacute" horiz-adv-x="337" d="M119 743H332L328 704L254 694L173 46L249 34L246 0H23L26 34L99 46L181 694L114 704L119 743ZM341 977L387 931Q369 896 320 855T227 788L203 806L341 977Z" />
<glyph unicode="&#xce;" glyph-name="Icircumflex" horiz-adv-x="337" d="M119 743H332L328 704L254 694L173 46L249 34L246 0H23L26 34L99 46L181 694L114 704L119 743ZM82 818L240 977H306L414 817L388 793L270 919L106 795L82 818Z" />
<glyph unicode="&#xcf;" glyph-name="Idieresis" horiz-adv-x="337" d="M119 743H332L328 704L254 694L173 46L249 34L246 0H23L26 34L99 46L181 694L114 704L119 743ZM131 851T119 864T106 898Q107 922 124 940T161 958Q181 958 193 945T205 912Q205 887 188
869T148 851Q131 851 119 864ZM335 851T323 864T311 899Q311 923 328 940T366 958Q385 958 397 946T410 914Q410 888 394 870T353 851Q335 851 323 864Z" />
<glyph unicode="&#xd0;" glyph-name="Eth" horiz-adv-x="692" d="M255 744T297 748Q349 752 376 752Q521 752 589 671T657 444Q657 317 609 213T474 49T276 -7Q269 -6 254 -6T221 -3Q177 1 119 1H9L13 35L86 47L125 357H47L53 408H132L168 695L102 705L106 744H235Q255
744 297 748ZM188 47T229 44T297 40Q390 45 454 102T550 249T582 442Q582 582 529 644T354 706Q311 706 241 697L205 408H414L408 357H198L160 53Q188 47 229 44Z" />
<glyph unicode="&#xd1;" glyph-name="Ntilde" horiz-adv-x="737" d="M275 914T302 936T368 959Q390 959 407 949T445 921Q465 904 479 896T510 888Q536 888 552 901T585 937L607 905Q594 873 568 849T503 824Q478 824 461 834T424 863Q405 880 392 888T360 896Q335
896 317 883T282 847L260 879Q275 914 302 936ZM106 743H250L502 183L541 72L615 695L536 704L541 743H752L749 704L673 694L578 0H507L257 556L218 667L149 46L232 34L229 0H15L18 34L86 45L171 694L100 704L106 743Z" />
<glyph unicode="&#xd2;" glyph-name="Ograve" horiz-adv-x="675" d="M373 812T324 854T258 931L307 977L440 806L415 788Q373 812 324 854ZM475 753T529 710T611 595T638 433Q638 308 594 207T474 48T302 -10Q224 -10 169 32T85 148T57 312Q57 437 101 538T223
696T395 753Q475 753 529 710ZM313 704T255 655T164 519T131 322Q131 192 179 115T313 37Q382 37 439 86T528 223T561 419Q561 549 516 626T383 704Q313 704 255 655Z" />
<glyph unicode="&#xd3;" glyph-name="Oacute" horiz-adv-x="675" d="M504 977L550 931Q532 896 483 855T390 788L366 806L504 977ZM475 753T529 710T611 595T638 433Q638 308 594 207T474 48T302 -10Q224 -10 169 32T85 148T57 312Q57 437 101 538T223 696T395
753Q475 753 529 710ZM313 704T255 655T164 519T131 322Q131 192 179 115T313 37Q382 37 439 86T528 223T561 419Q561 549 516 626T383 704Q313 704 255 655Z" />
<glyph unicode="&#xd4;" glyph-name="Ocircumflex" horiz-adv-x="675" d="M475 753T529 710T611 595T638 433Q638 308 594 207T474 48T302 -10Q224 -10 169 32T85 148T57 312Q57 437 101 538T223 696T395 753Q475 753 529 710ZM313 704T255 655T164 519T131 322Q131
192 179 115T313 37Q382 37 439 86T528 223T561 419Q561 549 516 626T383 704Q313 704 255 655ZM245 818L403 977H469L577 817L551 793L433 919L269 795L245 818Z" />
<glyph unicode="&#xd5;" glyph-name="Otilde" horiz-adv-x="675" d="M255 914T282 936T348 959Q370 959 387 949T425 921Q445 904 459 896T490 888Q516 888 532 901T565 937L587 905Q574 873 548 849T483 824Q458 824 441 834T404 863Q385 880 372 888T340 896Q315
896 297 883T262 847L240 879Q255 914 282 936ZM475 753T529 710T611 595T638 433Q638 308 594 207T474 48T302 -10Q224 -10 169 32T85 148T57 312Q57 437 101 538T223 696T395 753Q475 753 529 710ZM313 704T255 655T164 519T131 322Q131 192 179 115T313 37Q382
37 439 86T528 223T561 419Q561 549 516 626T383 704Q313 704 255 655Z" />
<glyph unicode="&#xd6;" glyph-name="Odieresis" horiz-adv-x="675" d="M294 851T282 864T269 898Q270 922 287 940T324 958Q344 958 356 945T368 912Q368 887 351 869T311 851Q294 851 282 864ZM498 851T486 864T474 899Q474 923 491 940T529 958Q548 958 560
946T573 914Q573 888 557 870T516 851Q498 851 486 864ZM475 753T529 710T611 595T638 433Q638 308 594 207T474 48T302 -10Q224 -10 169 32T85 148T57 312Q57 437 101 538T223 696T395 753Q475 753 529 710ZM313 704T255 655T164 519T131 322Q131 192 179 115T313
37Q382 37 439 86T528 223T561 419Q561 549 516 626T383 704Q313 704 255 655Z" />
<glyph unicode="&#xd7;" glyph-name="multiply" horiz-adv-x="669" d="M344 334L157 159L119 208L311 374L160 539L209 586L352 413L537 588L575 540L385 373L537 208L487 160L344 334Z" />
<glyph unicode="&#xd8;" glyph-name="Oslash" horiz-adv-x="677" d="M591 655T614 586T638 434Q638 309 594 208T474 49T302 -9Q223 -9 168 34L98 -81L63 -63L137 62Q97 105 77 170T57 313Q57 438 101 539T223 697T395 754Q461 754 514 722L577 827L611 810L545
697Q591 655 614 586ZM442 705T383 705Q313 705 255 656T164 520T131 323Q131 196 177 119L483 666Q442 705 383 705ZM245 38T313 38Q382 38 439 87T528 224T561 420Q561 564 507 639L200 88Q245 38 313 38Z" />
<glyph unicode="&#xd9;" glyph-name="Ugrave" horiz-adv-x="673" d="M364 812T315 854T249 931L298 977L431 806L406 788Q364 812 315 854ZM562 137T491 64T292 -10Q189 -10 133 47T75 208Q73 249 79 290L132 695L64 704L68 743H286L282 704L207 694L154 296Q147
250 149 204Q151 123 189 79T303 34Q397 34 449 101T519 306L570 694L504 704L508 743H703L699 704L635 695L584 306Q562 137 491 64Z" />
<glyph unicode="&#xda;" glyph-name="Uacute" horiz-adv-x="673" d="M495 977L541 931Q523 896 474 855T381 788L357 806L495 977ZM562 137T491 64T292 -10Q189 -10 133 47T75 208Q73 249 79 290L132 695L64 704L68 743H286L282 704L207 694L154 296Q147 250 149
204Q151 123 189 79T303 34Q397 34 449 101T519 306L570 694L504 704L508 743H703L699 704L635 695L584 306Q562 137 491 64Z" />
<glyph unicode="&#xdb;" glyph-name="Ucircumflex" horiz-adv-x="673" d="M562 137T491 64T292 -10Q189 -10 133 47T75 208Q73 249 79 290L132 695L64 704L68 743H286L282 704L207 694L154 296Q147 250 149 204Q151 123 189 79T303 34Q397 34 449 101T519 306L570
694L504 704L508 743H703L699 704L635 695L584 306Q562 137 491 64ZM236 818L394 977H460L568 817L542 793L424 919L260 795L236 818Z" />
<glyph unicode="&#xdc;" glyph-name="Udieresis" horiz-adv-x="673" d="M285 851T273 864T260 898Q261 922 278 940T315 958Q335 958 347 945T359 912Q359 887 342 869T302 851Q285 851 273 864ZM489 851T477 864T465 899Q465 923 482 940T520 958Q539 958 551
946T564 914Q564 888 548 870T507 851Q489 851 477 864ZM562 137T491 64T292 -10Q189 -10 133 47T75 208Q73 249 79 290L132 695L64 704L68 743H286L282 704L207 694L154 296Q147 250 149 204Q151 123 189 79T303 34Q397 34 449 101T519 306L570 694L504 704L508
743H703L699 704L635 695L584 306Q562 137 491 64Z" />
<glyph unicode="&#xdd;" glyph-name="Yacute" horiz-adv-x="573" d="M32 743H265L260 704L169 694L289 401L312 334L351 401L530 694L453 704L458 743H653L649 704L595 695L336 286L305 46L413 34L409 0H118L121 34L235 46L266 286L86 694L29 704L32 743ZM463
977L509 931Q491 896 442 855T349 788L325 806L463 977Z" />
<glyph unicode="&#xde;" glyph-name="Thorn" horiz-adv-x="599" d="M284 592T352 592Q462 592 519 544T577 405Q577 330 539 273T435 184T290 153Q215 153 177 157L163 46L245 34L242 0H13L17 34L90 46L171 698L105 708L109 747H322L318 708L245 698L230 583Q284
592 352 592ZM228 198T289 198Q390 198 447 250T504 386Q504 468 466 506T333 545Q309 545 276 543T224 536L183 204Q228 198 289 198Z" />
<glyph unicode="&#xdf;" glyph-name="germandbls" horiz-adv-x="579" d="M122 589T164 659T259 752T377 774Q445 774 487 740T529 642Q529 601 509 570T450 499Q423 472 410 454T396 415Q396 398 410 378T464 306Q492 264 506 232T521 158Q521 113 493 75T417
15T317 -8Q285 -8 254 0T205 20L214 93Q228 77 263 60T329 43Q383 44 413 67T444 146Q444 202 401 265Q368 308 349 339T329 396Q329 424 339 441T374 485Q413 520 434 554T455 631Q455 674 432 704T360 735Q311 735 278 717T219 642T178 477L113 0H41L104 453Q122
589 164 659Z" />
<glyph unicode="&#xe0;" glyph-name="agrave" horiz-adv-x="573" d="M441 79T441 72Q441 56 447 49T461 42Q471 42 480 48T505 70L519 49Q515 41 501 27T467 2T423 -10Q363 -10 367 57L373 100Q339 55 293 23T198 -10Q119 -10 81 47T43 201Q43 281 81 366T190
510T355 568Q376 568 403 563T453 551L507 567L442 84Q441 79 441 72ZM393 520T344 520Q275 520 224 472T146 352T119 210Q119 132 141 89T211 46Q258 46 304 83T382 166L425 497Q393 520 344 520ZM310 636T248 695T168 787L224 844L372 637L347 613Q310 636 248
695Z" />
<glyph unicode="&#xe1;" glyph-name="aacute" horiz-adv-x="573" d="M441 79T441 72Q441 56 447 49T461 42Q471 42 480 48T505 70L519 49Q515 41 501 27T467 2T423 -10Q363 -10 367 57L373 100Q339 55 293 23T198 -10Q119 -10 81 47T43 201Q43 281 81 366T190
510T355 568Q376 568 403 563T453 551L507 567L442 84Q441 79 441 72ZM393 520T344 520Q275 520 224 472T146 352T119 210Q119 132 141 89T211 46Q258 46 304 83T382 166L425 497Q393 520 344 520ZM461 844L514 791Q504 774 470 737T395 664T327 613L303 637L461
844Z" />
<glyph unicode="&#xe2;" glyph-name="acircumflex" horiz-adv-x="573" d="M441 79T441 72Q441 56 447 49T461 42Q471 42 480 48T505 70L519 49Q515 41 501 27T467 2T423 -10Q363 -10 367 57L373 100Q339 55 293 23T198 -10Q119 -10 81 47T43 201Q43 281 81 366T190
510T355 568Q376 568 403 563T453 551L507 567L442 84Q441 79 441 72ZM393 520T344 520Q275 520 224 472T146 352T119 210Q119 132 141 89T211 46Q258 46 304 83T382 166L425 497Q393 520 344 520ZM176 626L344 806H411L510 625L482 603L368 748L198 604L176 626Z"
/>
<glyph unicode="&#xe3;" glyph-name="atilde" horiz-adv-x="573" d="M441 79T441 72Q441 56 447 49T461 42Q471 42 480 48T505 70L519 49Q515 41 501 27T467 2T423 -10Q363 -10 367 57L373 100Q339 55 293 23T198 -10Q119 -10 81 47T43 201Q43 281 81 366T190
510T355 568Q376 568 403 563T453 551L507 567L442 84Q441 79 441 72ZM393 520T344 520Q275 520 224 472T146 352T119 210Q119 132 141 89T211 46Q258 46 304 83T382 166L425 497Q393 520 344 520ZM202 744T234 768T302 792Q325 792 340 782T375 753Q390 737 402
729T429 721Q454 721 471 737T507 779L530 743Q518 707 485 682T414 657Q387 657 371 667T336 697Q320 714 310 721T283 729Q249 729 203 678L185 711Q202 744 234 768Z" />
<glyph unicode="&#xe4;" glyph-name="adieresis" horiz-adv-x="573" d="M441 79T441 72Q441 56 447 49T461 42Q471 42 480 48T505 70L519 49Q515 41 501 27T467 2T423 -10Q363 -10 367 57L373 100Q339 55 293 23T198 -10Q119 -10 81 47T43 201Q43 281 81 366T190
510T355 568Q376 568 403 563T453 551L507 567L442 84Q441 79 441 72ZM393 520T344 520Q275 520 224 472T146 352T119 210Q119 132 141 89T211 46Q258 46 304 83T382 166L425 497Q393 520 344 520ZM236 685T224 698T211 732Q212 757 228 774T266 792Q287 792 299
780T311 747Q310 721 293 703T253 685Q236 685 224 698ZM442 685T430 698T417 732Q418 757 434 774T472 792Q493 792 505 780T517 747Q516 721 499 703T459 685Q442 685 430 698Z" />
<glyph unicode="&#xe5;" glyph-name="aring" horiz-adv-x="573" d="M441 79T441 72Q441 56 447 49T461 42Q471 42 480 48T505 70L519 49Q515 41 501 27T467 2T423 -10Q363 -10 367 57L373 100Q339 55 293 23T198 -10Q119 -10 81 47T43 201Q43 281 81 366T190 510T355
568Q376 568 403 563T453 551L507 567L442 84Q441 79 441 72ZM393 520T344 520Q275 520 224 472T146 352T119 210Q119 132 141 89T211 46Q258 46 304 83T382 166L425 497Q393 520 344 520ZM296 613T262 643T227 726Q227 774 251 806T314 853T393 868Q454 868 488
840T522 762Q522 713 499 680T438 630T360 613Q296 613 262 643ZM412 645T443 671T474 753Q474 791 451 813T387 836Q341 836 309 811T277 733Q277 695 301 670T365 645Q412 645 443 671Z" />
<glyph unicode="&#xe6;" glyph-name="ae" horiz-adv-x="848" d="M535 525T579 546T673 567Q736 567 769 532T802 444Q802 374 742 326T602 253T462 228L461 201Q461 45 575 45Q619 45 668 64T758 124L776 91Q760 69 729 46T655 6T566 -10Q485 -10 441 34T388 155Q357
89 304 40T190 -10Q116 -10 80 45T43 200Q43 280 81 365T191 509T356 567Q402 567 455 550L511 567L497 487Q535 525 579 546ZM599 522T559 483T495 386T464 272Q522 274 583 294T685 352T726 439Q726 480 707 501T649 522Q599 522 559 483ZM401 520T345 520Q275
520 224 472T146 352T119 209Q119 46 203 46Q258 46 308 98T385 207L432 493Q401 520 345 520Z" />
<glyph unicode="&#xe7;" glyph-name="ccedilla" horiz-adv-x="435" d="M349 568T379 562T430 544L408 469L398 477Q377 492 352 501T305 510Q247 510 204 474T138 372T115 221Q115 135 146 90T233 45Q273 45 304 59T375 106L390 74Q367 48 332 25T250 -7Q259 -34
259 -66Q259 -146 223 -186T128 -227Q109 -227 91 -223T65 -213L71 -154Q77 -158 91 -160T121 -163Q166 -163 189 -130T213 -42Q213 -24 210 -10Q128 -9 83 49T37 210Q37 290 71 373T170 512T322 568Q349 568 379 562Z" />
<glyph unicode="&#xe8;" glyph-name="egrave" horiz-adv-x="513" d="M414 55T358 23T237 -10Q172 -10 129 20T66 98T45 204Q45 298 82 382T185 517T330 568Q397 568 432 534T467 446Q467 375 406 327T264 254T123 228Q122 221 122 205Q122 141 152 93T246 45Q289
45 335 64T422 124L440 91Q414 55 358 23ZM261 522T220 483T155 386T125 272Q183 274 245 294T350 352T392 439Q392 479 371 500T313 522Q261 522 220 483ZM272 636T210 695T130 787L186 844L334 637L309 613Q272 636 210 695Z" />
<glyph unicode="&#xe9;" glyph-name="eacute" horiz-adv-x="513" d="M423 844L476 791Q466 774 432 737T357 664T289 613L265 637L423 844ZM414 55T358 23T237 -10Q172 -10 129 20T66 98T45 204Q45 298 82 382T185 517T330 568Q397 568 432 534T467 446Q467 375
406 327T264 254T123 228Q122 221 122 205Q122 141 152 93T246 45Q289 45 335 64T422 124L440 91Q414 55 358 23ZM261 522T220 483T155 386T125 272Q183 274 245 294T350 352T392 439Q392 479 371 500T313 522Q261 522 220 483Z" />
<glyph unicode="&#xea;" glyph-name="ecircumflex" horiz-adv-x="513" d="M138 626L306 806H373L472 625L444 603L330 748L160 604L138 626ZM414 55T358 23T237 -10Q172 -10 129 20T66 98T45 204Q45 298 82 382T185 517T330 568Q397 568 432 534T467 446Q467 375
406 327T264 254T123 228Q122 221 122 205Q122 141 152 93T246 45Q289 45 335 64T422 124L440 91Q414 55 358 23ZM261 522T220 483T155 386T125 272Q183 274 245 294T350 352T392 439Q392 479 371 500T313 522Q261 522 220 483Z" />
<glyph unicode="&#xeb;" glyph-name="edieresis" horiz-adv-x="513" d="M198 685T186 698T173 732Q174 757 190 774T228 792Q249 792 261 780T273 747Q272 721 255 703T215 685Q198 685 186 698ZM404 685T392 698T379 732Q380 757 396 774T434 792Q455 792 467
780T479 747Q478 721 461 703T421 685Q404 685 392 698ZM414 55T358 23T237 -10Q172 -10 129 20T66 98T45 204Q45 298 82 382T185 517T330 568Q397 568 432 534T467 446Q467 375 406 327T264 254T123 228Q122 221 122 205Q122 141 152 93T246 45Q289 45 335 64T422
124L440 91Q414 55 358 23ZM261 522T220 483T155 386T125 272Q183 274 245 294T350 352T392 439Q392 479 371 500T313 522Q261 522 220 483Z" />
<glyph unicode="&#xec;" glyph-name="igrave" horiz-adv-x="309" d="M160 67Q160 55 164 49T175 42Q186 42 198 50T228 76L241 55Q228 35 200 13T137 -10Q84 -10 84 41Q84 71 117 288Q135 408 147 494L82 514L88 545L210 566L230 556L161 77L160 67ZM417 636T355
695T275 787L331 844L479 637L454 613Q417 636 355 695Z" />
<glyph unicode="&#xed;" glyph-name="iacute" horiz-adv-x="309" d="M311 844L364 791Q354 774 320 737T245 664T177 613L153 637L311 844ZM160 67Q160 55 164 49T175 42Q186 42 198 50T228 76L241 55Q228 35 200 13T137 -10Q84 -10 84 41Q84 71 117 288Q135 408
147 494L82 514L88 545L210 566L230 556L161 77L160 67Z" />
<glyph unicode="&#xee;" glyph-name="icircumflex" horiz-adv-x="309" d="M26 626L194 806H261L360 625L332 603L218 748L48 604L26 626ZM160 67Q160 55 164 49T175 42Q186 42 198 50T228 76L241 55Q228 35 200 13T137 -10Q84 -10 84 41Q84 71 117 288Q135 408
147 494L82 514L88 545L210 566L230 556L161 77L160 67Z" />
<glyph unicode="&#xef;" glyph-name="idieresis" horiz-adv-x="309" d="M86 685T74 698T61 732Q62 757 78 774T116 792Q137 792 149 780T161 747Q160 721 143 703T103 685Q86 685 74 698ZM292 685T280 698T267 732Q268 757 284 774T322 792Q343 792 355 780T367
747Q366 721 349 703T309 685Q292 685 280 698ZM160 67Q160 55 164 49T175 42Q186 42 198 50T228 76L241 55Q228 35 200 13T137 -10Q84 -10 84 41Q84 71 117 288Q135 408 147 494L82 514L88 545L210 566L230 556L161 77L160 67Z" />
<glyph unicode="&#xf0;" glyph-name="eth" horiz-adv-x="564" d="M213 785T167 795L184 842Q209 836 245 820T313 783Q337 811 359 838T390 875L427 839L354 756Q440 683 479 599T519 401Q519 287 486 194T389 45T234 -10Q173 -10 130 21T64 101T42 206Q42 306
80 382T181 500T312 542Q354 542 390 528T443 486Q425 573 400 618T315 713L236 624L198 659L275 742Q213 785 167 795ZM253 498T210 456T144 345T121 201Q121 130 153 82T243 33Q314 33 365 102T432 276Q439 325 439 365L438 382Q436 402 422 429T380 477T311
498Q253 498 210 456Z" />
<glyph unicode="&#xf1;" glyph-name="ntilde" horiz-adv-x="614" d="M240 490T299 529T415 568Q469 568 497 535T526 424Q526 378 505 275L500 247L496 223Q478 127 474 77V69Q474 42 485 42Q506 42 533 68L545 46Q541 39 526 25T490 1T446 -10Q396 -10 396 44Q396
65 401 99T413 166L424 223L428 244Q439 301 445 342T452 419Q452 469 437 487T383 506Q339 506 283 465T188 364L139 0H67L132 489L84 512L91 547L191 568L210 558L196 431Q240 490 299 529ZM194 744T226 768T294 792Q317 792 332 782T367 753Q382 737 394 729T421
721Q446 721 463 737T499 779L522 743Q510 707 477 682T406 657Q379 657 363 667T328 697Q312 714 302 721T275 729Q241 729 195 678L177 711Q194 744 226 768Z" />
<glyph unicode="&#xf2;" glyph-name="ograve" horiz-adv-x="558" d="M412 568T462 508T512 338Q512 251 477 171T378 40T236 -10Q143 -10 93 49T42 216Q42 306 77 387T176 518T319 568Q412 568 462 508ZM247 520T205 475T141 361T119 221Q119 133 153 86T250 38Q307
38 349 83T413 198T435 336Q435 424 403 472T306 520Q247 520 205 475ZM281 636T219 695T139 787L195 844L343 637L318 613Q281 636 219 695Z" />
<glyph unicode="&#xf3;" glyph-name="oacute" horiz-adv-x="558" d="M431 844L484 791Q474 774 440 737T365 664T297 613L273 637L431 844ZM412 568T462 508T512 338Q512 251 477 171T378 40T236 -10Q143 -10 93 49T42 216Q42 306 77 387T176 518T319 568Q412
568 462 508ZM247 520T205 475T141 361T119 221Q119 133 153 86T250 38Q307 38 349 83T413 198T435 336Q435 424 403 472T306 520Q247 520 205 475Z" />
<glyph unicode="&#xf4;" glyph-name="ocircumflex" horiz-adv-x="558" d="M154 626L322 806H389L488 625L460 603L346 748L176 604L154 626ZM412 568T462 508T512 338Q512 251 477 171T378 40T236 -10Q143 -10 93 49T42 216Q42 306 77 387T176 518T319 568Q412
568 462 508ZM247 520T205 475T141 361T119 221Q119 133 153 86T250 38Q307 38 349 83T413 198T435 336Q435 424 403 472T306 520Q247 520 205 475Z" />
<glyph unicode="&#xf5;" glyph-name="otilde" horiz-adv-x="558" d="M412 568T462 508T512 338Q512 251 477 171T378 40T236 -10Q143 -10 93 49T42 216Q42 306 77 387T176 518T319 568Q412 568 462 508ZM247 520T205 475T141 361T119 221Q119 133 153 86T250 38Q307
38 349 83T413 198T435 336Q435 424 403 472T306 520Q247 520 205 475ZM173 744T205 768T273 792Q296 792 311 782T346 753Q361 737 373 729T400 721Q425 721 442 737T478 779L501 743Q489 707 456 682T385 657Q358 657 342 667T307 697Q291 714 281 721T254 729Q220
729 174 678L156 711Q173 744 205 768Z" />
<glyph unicode="&#xf6;" glyph-name="odieresis" horiz-adv-x="558" d="M214 685T202 698T189 732Q190 757 206 774T244 792Q265 792 277 780T289 747Q288 721 271 703T231 685Q214 685 202 698ZM420 685T408 698T395 732Q396 757 412 774T450 792Q471 792 483
780T495 747Q494 721 477 703T437 685Q420 685 408 698ZM412 568T462 508T512 338Q512 251 477 171T378 40T236 -10Q143 -10 93 49T42 216Q42 306 77 387T176 518T319 568Q412 568 462 508ZM247 520T205 475T141 361T119 221Q119 133 153 86T250 38Q307 38 349
83T413 198T435 336Q435 424 403 472T306 520Q247 520 205 475Z" />
<glyph unicode="&#xf7;" glyph-name="divide" horiz-adv-x="669" d="M345 511T333 522T320 555Q320 583 340 602T385 622Q430 622 430 579Q430 549 410 530T365 511Q345 511 333 522ZM139 409H563L557 348H133L139 409ZM275 205T295 225T340 245Q363 245 374 234T385
203Q385 173 365 153T319 133Q300 133 288 144T275 177Q275 205 295 225Z" />
<glyph unicode="&#xf8;" glyph-name="oslash" horiz-adv-x="558" d="M512 472T512 339Q512 252 477 172T378 41T236 -9Q180 -9 137 14L86 -65L52 -46L105 38Q75 67 59 112T42 217Q42 307 77 388T176 519T319 569Q369 569 406 551L455 631L489 611L440 530Q512
472 512 339ZM347 521T306 521Q247 521 205 476T141 362T119 222Q119 141 146 96L377 499Q347 521 306 521ZM200 39T250 39Q307 39 349 84T413 199T435 337Q435 427 401 474L168 68Q200 39 250 39Z" />
<glyph unicode="&#xf9;" glyph-name="ugrave" horiz-adv-x="587" d="M163 247Q153 171 153 136Q153 83 172 64T230 44Q271 44 317 77T394 153L447 562H519L455 78Q454 74 454 66Q454 42 467 42Q488 42 522 77L534 55Q523 38 492 15T427 -9Q405 -9 393 4T380 41Q380
46 382 58Q385 70 387 95L386 96Q349 51 302 21T200 -10Q142 -10 112 20T81 124Q81 173 98 296L125 487L77 510L83 545L184 566L203 556L169 292L163 247ZM285 636T223 695T143 787L199 844L347 637L322 613Q285 636 223 695Z" />
<glyph unicode="&#xfa;" glyph-name="uacute" horiz-adv-x="587" d="M435 844L488 791Q478 774 444 737T369 664T301 613L277 637L435 844ZM163 247Q153 171 153 136Q153 83 172 64T230 44Q271 44 317 77T394 153L447 562H519L455 78Q454 74 454 66Q454 42 467
42Q488 42 522 77L534 55Q523 38 492 15T427 -9Q405 -9 393 4T380 41Q380 46 382 58Q385 70 387 95L386 96Q349 51 302 21T200 -10Q142 -10 112 20T81 124Q81 173 98 296L125 487L77 510L83 545L184 566L203 556L169 292L163 247Z" />
<glyph unicode="&#xfb;" glyph-name="ucircumflex" horiz-adv-x="587" d="M151 626L319 806H386L485 625L457 603L343 748L173 604L151 626ZM163 247Q153 171 153 136Q153 83 172 64T230 44Q271 44 317 77T394 153L447 562H519L455 78Q454 74 454 66Q454 42 467
42Q488 42 522 77L534 55Q523 38 492 15T427 -9Q405 -9 393 4T380 41Q380 46 382 58Q385 70 387 95L386 96Q349 51 302 21T200 -10Q142 -10 112 20T81 124Q81 173 98 296L125 487L77 510L83 545L184 566L203 556L169 292L163 247Z" />
<glyph unicode="&#xfc;" glyph-name="udieresis" horiz-adv-x="587" d="M210 685T198 698T185 732Q186 757 202 774T240 792Q261 792 273 780T285 747Q284 721 267 703T227 685Q210 685 198 698ZM416 685T404 698T391 732Q392 757 408 774T446 792Q467 792 479
780T491 747Q490 721 473 703T433 685Q416 685 404 698ZM163 247Q153 171 153 136Q153 83 172 64T230 44Q271 44 317 77T394 153L447 562H519L455 78Q454 74 454 66Q454 42 467 42Q488 42 522 77L534 55Q523 38 492 15T427 -9Q405 -9 393 4T380 41Q380 46 382 58Q385
70 387 95L386 96Q349 51 302 21T200 -10Q142 -10 112 20T81 124Q81 173 98 296L125 487L77 510L83 545L184 566L203 556L169 292L163 247Z" />
<glyph unicode="&#xfd;" glyph-name="yacute" horiz-adv-x="523" d="M91 496T86 503T71 510Q62 510 52 504T27 482L15 507Q24 523 51 544T109 566Q140 566 152 550T168 499L219 126L233 -13L317 148L345 204Q388 288 408 344T429 463Q429 476 420 498Q412 516
412 525Q412 546 422 555T448 565Q473 565 486 543T500 478Q500 411 469 337T386 168L372 142Q267 -73 194 -161Q170 -195 128 -221T25 -247Q5 -247 -19 -243T-60 -232L-42 -170Q-26 -178 -8 -183T40 -189Q82 -189 131 -153T218 -39H184L95 476Q91 496 86 503ZM412
844L465 791Q455 774 421 737T346 664T278 613L254 637L412 844Z" />
<glyph unicode="&#xfe;" glyph-name="thorn" horiz-adv-x="574" d="M227 513T270 540T365 568Q447 568 489 510T531 356Q531 277 494 192T386 48T222 -10Q186 -10 134 4L128 -53L99 -254H29L64 -2L163 740L116 757L124 790L224 806L244 794L201 475Q227 513 270
540ZM175 38T233 38Q303 38 353 87T429 210T455 351Q455 427 429 469T353 512Q303 512 259 479T191 407L145 63Q175 38 233 38Z" />
<glyph unicode="&#xff;" glyph-name="ydieresis" horiz-adv-x="523" d="M91 496T86 503T71 510Q62 510 52 504T27 482L15 507Q24 523 51 544T109 566Q140 566 152 550T168 499L219 126L233 -13L317 148L345 204Q388 288 408 344T429 463Q429 476 420 498Q412 516
412 525Q412 546 422 555T448 565Q473 565 486 543T500 478Q500 411 469 337T386 168L372 142Q267 -73 194 -161Q170 -195 128 -221T25 -247Q5 -247 -19 -243T-60 -232L-42 -170Q-26 -178 -8 -183T40 -189Q82 -189 131 -153T218 -39H184L95 476Q91 496 86 503ZM187
685T175 698T162 732Q163 757 179 774T217 792Q238 792 250 780T262 747Q261 721 244 703T204 685Q187 685 175 698ZM393 685T381 698T368 732Q369 757 385 774T423 792Q444 792 456 780T468 747Q467 721 450 703T410 685Q393 685 381 698Z" />
<glyph unicode="&#x2013;" glyph-name="endash" horiz-adv-x="757" d="M128 408H666L655 347H117L128 408Z" />
<glyph unicode="&#x2014;" glyph-name="emdash" horiz-adv-x="999" d="M127 408H908L897 347H117L127 408Z" />
<glyph unicode="&#x2018;" glyph-name="quoteleft" horiz-adv-x="333" d="M148 470T127 508T106 592Q106 680 160 743T291 840L306 813V804Q279 795 252 768T206 702T187 625Q187 591 203 564T249 531L247 515L193 458Q148 470 127 508Z" />
<glyph unicode="&#x2019;" glyph-name="quoteright" horiz-adv-x="333" d="M273 827T294 789T315 705Q315 617 261 554T130 457L115 484V493Q142 502 169 529T215 595T234 672Q234 706 218 733T172 766L174 782L228 839Q273 827 294 789Z" />
<glyph unicode="&#x201a;" glyph-name="quotesinglbase" horiz-adv-x="333" d="M183 125T204 87T225 3Q225 -85 171 -148T40 -245L25 -218V-209Q52 -200 79 -173T125 -107T144 -30Q144 4 128 31T82 64L84 80L138 137Q183 125 204 87Z" />
<glyph unicode="&#x201c;" glyph-name="quotedblleft" horiz-adv-x="567" d="M382 470T361 508T340 592Q340 680 394 743T525 840L540 813V804Q513 795 486 768T440 702T421 625Q421 591 437 564T483 531L481 515L427 458Q382 470 361 508ZM148 470T127 508T106
592Q106 680 160 743T291 840L306 813V804Q279 795 252 768T206 702T187 625Q187 591 203 564T249 531L247 515L193 458Q148 470 127 508Z" />
<glyph unicode="&#x201d;" glyph-name="quotedblright" horiz-adv-x="567" d="M273 827T294 789T315 705Q315 617 261 554T130 457L115 484V493Q142 502 169 529T215 595T234 672Q234 706 218 733T172 766L174 782L228 839Q273 827 294 789ZM507 827T528 789T549
705Q549 617 495 554T364 457L349 484V493Q376 502 403 529T449 595T468 672Q468 706 452 733T406 766L408 782L462 839Q507 827 528 789Z" />
<glyph unicode="&#x201e;" glyph-name="quotedblbase" horiz-adv-x="567" d="M183 125T204 87T225 3Q225 -85 171 -148T40 -245L25 -218V-209Q52 -200 79 -173T125 -107T144 -30Q144 4 128 31T82 64L84 80L138 137Q183 125 204 87ZM417 125T438 87T459 3Q459 -85
405 -148T274 -245L259 -218V-209Q286 -200 313 -173T359 -107T378 -30Q378 4 362 31T316 64L318 80L372 137Q417 125 438 87Z" />
<glyph unicode="&#x2022;" glyph-name="bullet" horiz-adv-x="419" d="M176 271T157 293T137 344Q137 385 164 413T232 441Q261 441 280 421T299 370Q299 328 272 300T204 271Q176 271 157 293Z" />
<glyph unicode="&#x2039;" glyph-name="guilsinglleft" horiz-adv-x="581" d="M127 329L467 530L481 485L209 300L430 118L404 74L120 267L127 329Z" />
<glyph unicode="&#x203a;" glyph-name="guilsinglright" horiz-adv-x="581" d="M420 275L80 74L66 119L338 304L117 486L143 530L427 337L420 275Z" />
</font>
</defs>
</svg>
