<?xml version="1.0" encoding="UTF-8"?>
<svg xmlns="http://www.w3.org/2000/svg" xmlns:xlink="http://www.w3.org/1999/xlink" width="1000pt" height="75pt" viewBox="0 0 1000 75" version="1.1" preserveAspectRatio="none">
<g id="surface1">
<path style=" stroke:none;fill-rule:nonzero;fill:rgb(20%,47.843137%,71.764706%);fill-opacity:1;" d="M -0.601562 54.777344 C 2.148438 54.777344 6.316406 55.796875 11.898438 57.839844 L 11.898438 51.714844 C 6.316406 53.753906 2.148438 54.777344 -0.601562 54.777344 M 11.898438 57.839844 C 20.605469 57.839844 33.800781 60.324219 51.480469 65.300781 L 51.480469 44.25 C 33.800781 49.226562 20.605469 51.714844 11.898438 51.714844 L 11.898438 57.839844 M 51.480469 65.300781 C 59.042969 65.300781 70.503906 66.378906 85.855469 68.535156 L 85.855469 41.015625 C 70.503906 43.171875 59.042969 44.25 51.480469 44.25 L 51.480469 65.300781 M 85.855469 68.535156 C 97.886719 68.535156 116.117188 70.585938 140.542969 74.679688 L 140.542969 34.871094 C 116.117188 38.964844 97.886719 41.015625 85.855469 41.015625 L 85.855469 68.535156 M 140.542969 74.679688 C 157.933594 74.679688 184.683594 75.019531 220.792969 75.703125 L 218.160156 25.558594 C 183.804688 31.769531 157.933594 34.871094 140.542969 34.871094 L 140.542969 74.679688 M 220.792969 75.703125 C 233.132812 75.058594 252.015625 74.238281 277.445312 73.25 L 273.527344 19.808594 C 248.957031 22.996094 230.5 24.914062 218.160156 25.558594 L 220.792969 75.703125 M 277.445312 73.25 C 290.917969 72.265625 311.34375 71.570312 338.714844 71.171875 L 334.796875 13.554688 C 307.425781 16.738281 287.003906 18.820312 273.527344 19.808594 L 277.445312 73.25 M 338.714844 71.171875 C 353.679688 70.152344 376.050781 69.941406 405.835938 70.53125 L 403.945312 9.941406 C 372.808594 11.332031 349.761719 12.539062 334.796875 13.554688 L 338.714844 71.171875 M 405.835938 70.53125 C 417.453125 70.167969 434.941406 69.417969 458.296875 68.277344 L 457.125 10.066406 C 433.289062 9.621094 415.5625 9.578125 403.945312 9.941406 L 405.835938 70.53125 M 458.296875 68.277344 C 470.0625 68.039062 487.792969 67.679688 511.484375 67.195312 L 510.917969 10.085938 C 486.820312 9.835938 468.890625 9.832031 457.125 10.066406 L 458.296875 68.277344 M 511.484375 67.195312 C 520.121094 67.109375 533.164062 65.917969 550.621094 63.617188 L 550.277344 13.132812 C 532.671875 11.015625 519.550781 10 510.917969 10.085938 L 511.484375 67.195312 M 550.621094 63.617188 C 559.976562 63.550781 574.125 63.097656 593.0625 62.253906 L 592.914062 14.230469 C 573.847656 13.4375 559.636719 13.070312 550.277344 13.132812 L 550.621094 63.617188 M 593.0625 62.253906 C 601.84375 62.226562 614.75 62.421875 631.78125 62.847656 L 633.929688 17.40625 C 615.363281 15.261719 601.691406 14.203125 592.914062 14.230469 L 593.0625 62.253906 M 631.78125 62.847656 C 638.453125 63.160156 648.691406 62.609375 662.496094 61.195312 L 663.910156 21.207031 C 650.597656 18.988281 640.601562 17.722656 633.929688 17.40625 L 631.78125 62.847656 M 662.496094 61.195312 C 668.945312 61.421875 679.667969 59.503906 694.660156 55.4375 L 689.933594 19.339844 C 679.035156 20.8125 670.363281 21.433594 663.910156 21.207031 L 662.496094 61.195312 M 694.660156 55.4375 C 708.292969 53.65625 728.546875 55.101562 755.425781 59.777344 L 754.097656 11.558594 C 724.953125 14.960938 703.566406 17.554688 689.933594 19.339844 L 694.660156 55.4375 M 755.425781 59.777344 C 768.25 59.421875 787.601562 59.988281 813.472656 61.476562 L 812.679688 8.132812 C 786.449219 10.0625 766.921875 11.207031 754.097656 11.558594 L 755.425781 59.777344 M 813.472656 61.476562 C 826.734375 61.277344 847.378906 60.339844 875.398438 58.652344 L 871 1.679688 C 845.386719 5.785156 825.945312 7.9375 812.679688 8.132812 L 813.472656 61.476562 M 875.398438 58.652344 C 885.203125 57.898438 899.800781 56.429688 919.191406 54.25 L 916.5 1.527344 C 895.972656 0.871094 880.808594 0.921875 871 1.679688 L 875.398438 58.652344 M 919.191406 54.25 C 925.886719 53.910156 936.320312 51.386719 950.492188 46.6875 L 945.808594 2.644531 C 932.964844 1.558594 923.195312 1.183594 916.5 1.527344 L 919.191406 54.25 L 1000.601562 21.441406 C 1000.601562 9.210938 990.683594 -0.703125 978.453125 -0.703125 C 966.222656 -0.703125 956.304688 9.210938 956.304688 21.441406 C 956.304688 33.675781 966.222656 43.589844 978.453125 43.589844 C 990.683594 43.589844 1000.601562 33.675781 1000.601562 21.441406 M 950.492188 46.6875 L 980.796875 43.464844 L 976.113281 -0.582031 L 945.808594 2.644531 L 950.492188 46.6875 "/>
</g>
</svg>
